<svg width="182" height="176" viewBox="0 0 182 176" fill="none" xmlns="http://www.w3.org/2000/svg">
<g clip-path="url(#clip0_6673_402)">
<rect x="10" y="10" width="161.082" height="155.16" rx="47.3772" fill="#11101F"/>
<path d="M53.4915 136.05C48.8967 136.542 45.0296 136.004 41.8903 134.435C38.8262 132.859 36.4428 130.523 34.7401 127.43C33.0454 124.411 31.9883 120.944 31.5688 117.027C30.9234 111.001 31.7226 104.592 33.9664 97.799C35.6506 92.8949 38.0908 88.2908 41.2868 83.9867C44.4748 79.6072 48.2035 76.0079 52.4729 73.1888C56.7342 70.2944 61.3506 68.5809 66.322 68.0484C70.1636 67.637 73.2707 67.8375 75.6434 68.65C78.008 69.3872 79.7686 70.5319 80.9254 72.0842C82.1493 73.5531 82.8581 75.1914 83.0517 76.9992C83.318 79.4849 82.8148 81.9006 81.5423 84.2464C80.2698 86.5922 78.5736 88.1833 76.4537 89.0199C76.3864 89.1033 76.2775 89.1531 76.1268 89.1692C76.0596 89.2526 75.913 89.3064 75.687 89.3306C75.8376 89.3145 75.9843 89.2607 76.1268 89.1692C76.2022 89.1611 76.2398 89.1571 76.2398 89.1571L76.4537 89.0199C77.4598 88.455 78.3517 87.1786 79.1292 85.1906C79.982 83.1945 80.2915 81.1043 80.0575 78.9199C79.7994 76.5095 78.6615 74.4219 76.644 72.6571C74.6264 70.8922 71.1696 70.272 66.2735 70.7964C61.9047 71.2643 57.7739 72.8877 53.8811 75.6665C50.0637 78.4372 46.7035 81.9208 43.8007 86.1174C40.9732 90.3058 38.7806 94.731 37.2228 99.393C35.283 105.467 34.6075 111.254 35.1965 116.753C35.7289 121.724 37.4612 125.805 40.3934 128.996C43.3255 132.186 47.5786 133.483 53.1526 132.886C56.3916 132.539 59.6467 131.276 62.918 129.097C66.2647 126.91 69.5548 124.196 72.7885 120.955C76.0895 117.63 79.2492 114.053 82.2677 110.225C85.3615 106.389 88.2414 102.69 90.9075 99.1287C88.0775 99.7366 85.3684 100.408 82.7805 101.142C80.2598 101.793 77.8265 102.549 75.4807 103.41L75.0287 103.458C74.1248 103.555 73.6245 103.151 73.5277 102.247C73.4873 101.871 73.5976 101.478 73.8586 101.069C74.1115 100.585 74.4975 100.277 75.0167 100.145C80.4186 98.6521 86.3263 97.2575 92.7396 95.9611C103.528 80.025 112.169 67.5188 118.663 58.4425C125.158 49.3662 130.488 43.6525 134.656 41.3014C136.307 40.3626 137.924 39.8085 139.506 39.6391C141.163 39.4616 142.048 39.9001 142.161 40.9547C142.274 42.0092 141.423 43.6623 139.607 45.9139C137.193 48.9913 134.806 53.0184 132.444 57.9951C130.157 62.9637 128.069 68.3682 126.18 74.2084C124.359 79.9653 122.96 85.7531 121.983 91.5719C123.038 91.4589 123.904 91.3661 124.582 91.2935C125.252 91.1456 125.854 91.081 126.39 91.0999C127.151 91.0945 127.74 91.26 128.157 91.5963C128.574 91.9326 128.803 92.289 128.843 92.6657C128.94 93.5696 128.423 94.082 127.293 94.203C126.54 94.2837 125.674 94.3765 124.695 94.4814C123.783 94.5028 122.799 94.5701 121.745 94.683C121.013 99.9422 120.877 104.719 121.337 109.012C121.45 110.067 121.596 111.079 121.777 112.051C121.957 113.022 122.171 113.951 122.418 114.839C122.988 116.606 123.61 118.14 124.282 119.439C125.03 120.731 125.893 121.324 126.873 121.219C128.003 121.098 129.317 119.852 130.815 117.482C131.345 116.74 131.874 116.34 132.401 116.284C132.778 116.244 133.095 116.362 133.353 116.639C133.62 116.992 133.635 117.485 133.398 118.12C132.104 121.687 130.063 123.62 127.276 123.918C125.77 124.08 124.228 123.559 122.652 122.357C121.151 121.146 119.938 119.066 119.012 116.118C118.326 113.982 117.846 111.634 117.572 109.072C117.346 106.963 117.225 104.767 117.209 102.483C117.26 100.116 117.416 97.6609 117.677 95.1187C114.589 95.4494 111.091 95.8622 107.182 96.3571C103.34 96.7685 99.4811 97.3723 95.6046 98.1685C95.5454 98.3272 95.4149 98.5316 95.2131 98.7818C95.0033 98.9567 94.8311 99.1275 94.6966 99.2943C92.0467 103.007 89.0779 106.944 85.7904 111.105C82.4948 115.191 79.0244 119.068 75.3791 122.734C71.8091 126.393 68.1329 129.415 64.3505 131.801C60.6514 134.254 57.0317 135.67 53.4915 136.05ZM97.8765 94.8395C101.543 94.2182 105.143 93.6803 108.675 93.2258C112.199 92.696 115.351 92.2441 118.129 91.8703C118.896 86.2264 120.161 80.6054 121.923 75.0072C123.677 69.3338 125.664 64.0544 127.884 59.1692C130.103 54.2839 132.261 50.2434 134.357 47.0476C134.55 46.7221 134.841 46.2338 135.228 45.5828C135.608 44.8565 135.958 44.2095 136.278 43.6419C136.665 42.9909 136.787 42.7111 136.645 42.8026C132.763 44.9707 127.759 50.5351 121.633 59.4958C115.575 68.3731 107.656 80.1543 97.8765 94.8395Z" fill="white"/>
</g>
<rect x="5" y="5" width="171.082" height="165.16" rx="52.3772" stroke="#2A2640" stroke-width="10"/>
<defs>
<clipPath id="clip0_6673_402">
<rect x="10" y="10" width="161.082" height="155.16" rx="47.3772" fill="white"/>
</clipPath>
</defs>
</svg>
